<mxfile host="app.diagrams.net" modified="2023-08-30T08:01:21.230Z" agent="Mozilla/5.0 (Macintosh; Intel Mac OS X 10_15_7) AppleWebKit/537.36 (KHTML, like Gecko) Chrome/115.0.0.0 Safari/537.36" version="21.5.2" etag="xXfynbUi_sb7whvNRCp_" type="github">
  <diagram name="第 1 页" id="v83mzjgjzNIt6yyXlVhS">
    <mxGraphModel>
      <root>
        <mxCell id="0" />
        <mxCell id="1" parent="0" />
      </root>
    </mxGraphModel>
  </diagram>
</mxfile>
